# xmcd
# 
# Track frame offsets:
#     150
#     19642
#     35462
#     56932
#     74105
#     89655
#     102502
#     120895
#     136242
#     152020
#     171607
#     187440
#     204090
#     218255
#     232642
#     246830
# 
# Disc length: 3521
# 
# Revision: 1
# Processed by: cddbd v1.5.2PL0 Copyright (c) Steve Scherf et al.
# Submitted via: fre:ac v1.0.27
# 
DISCID=e10dbf10
DTITLE=莊淑君 - 針線情
DYEAR=1989
DGENRE=POP
TTITLE0=針線情
TTITLE1=雨中花
TTITLE2=一世情
TTITLE3=無價值的愛
TTITLE4=暗戀伊
TTITLE5=呢！你敢知
TTITLE6=目屎含目墘
TTITLE7=癡情山地花
TTITLE8=騙我憨憨迺
TTITLE9=後悔的腳步
TTITLE10=存心來戲弄
TTITLE11=苦苦的愛
TTITLE12=痴情誰人知
TTITLE13=免勢字
TTITLE14=你是愛什麼
TTITLE15=爸爸交代的話
EXTD=
EXTT0=
EXTT1=
EXTT2=
EXTT3=
EXTT4=
EXTT5=
EXTT6=
EXTT7=
EXTT8=
EXTT9=
EXTT10=
EXTT11=
EXTT12=
EXTT13=
EXTT14=
EXTT15=
PLAYORDER=
